<svg xmlns="http://www.w3.org/2000/svg" viewBox="0 0 200 200" width="200" height="200">
  <defs>
    <linearGradient id="bg5" x1="0%" y1="0%" x2="100%" y2="100%">
      <stop offset="0%" stop-color="#2a1a00"/>
      <stop offset="100%" stop-color="#3a2800"/>
    </linearGradient>
  </defs>
  <circle cx="100" cy="100" r="100" fill="url(#bg5)"/>
  <!-- Shoulders jacket -->
  <ellipse cx="100" cy="185" rx="64" ry="36" fill="#1a1200"/>
  <path d="M74 145 Q100 157 126 145 L134 185 Q100 197 66 185 Z" fill="#0d0a00"/>
  <!-- Collar / hoodie -->
  <path d="M82 148 L74 145 L66 185 L82 185Z" fill="#2a2000"/>
  <path d="M118 148 L126 145 L134 185 L118 185Z" fill="#2a2000"/>
  <path d="M88 148 Q100 165 112 148 L116 185 L84 185Z" fill="#3a3000"/>
  <!-- Neck -->
  <rect x="89" y="128" width="22" height="24" rx="8" fill="#a06a38"/>
  <!-- Head -->
  <ellipse cx="100" cy="108" rx="40" ry="44" fill="#a06a38"/>
  <!-- Hair curly/wavy -->
  <ellipse cx="100" cy="72" rx="40" ry="20" fill="#0d0500"/>
  <circle cx="72" cy="78" r="12" fill="#0d0500"/>
  <circle cx="85" cy="70" r="11" fill="#0d0500"/>
  <circle cx="100" cy="67" r="12" fill="#0d0500"/>
  <circle cx="115" cy="70" r="11" fill="#0d0500"/>
  <circle cx="128" cy="78" r="12" fill="#0d0500"/>
  <rect x="60" y="78" width="80" height="15" fill="#0d0500"/>
  <!-- Eyes -->
  <ellipse cx="87" cy="107" rx="6" ry="6" fill="white"/>
  <ellipse cx="113" cy="107" rx="6" ry="6" fill="white"/>
  <circle cx="88" cy="108" r="3.5" fill="#1a0a00"/>
  <circle cx="114" cy="108" r="3.5" fill="#1a0a00"/>
  <circle cx="89" cy="107" r="1.2" fill="white"/>
  <circle cx="115" cy="107" r="1.2" fill="white"/>
  <!-- Eyebrows thick -->
  <path d="M79 100 Q87 96 95 100" stroke="#0d0500" stroke-width="3" fill="none" stroke-linecap="round"/>
  <path d="M105 100 Q113 96 121 100" stroke="#0d0500" stroke-width="3" fill="none" stroke-linecap="round"/>
  <!-- Nose broad -->
  <path d="M96 114 Q93 122 100 124 Q107 122 104 114" stroke="#804a20" stroke-width="2" fill="none" stroke-linecap="round"/>
  <!-- Wide smile -->
  <path d="M86 132 Q100 143 114 132" stroke="#7a4020" stroke-width="2.5" fill="none" stroke-linecap="round"/>
  <!-- Beard -->
  <path d="M76 128 Q80 148 100 152 Q120 148 124 128 Q115 140 100 142 Q85 140 76 128Z" fill="#0d0500" opacity="0.4"/>
  <!-- Mustache -->
  <path d="M91 125 Q96 128 100 126 Q104 128 109 125" stroke="#0d0500" stroke-width="2" fill="#0d0500" opacity="0.5" stroke-linecap="round"/>
  <!-- Ears -->
  <ellipse cx="60" cy="111" rx="7" ry="9" fill="#a06a38"/>
  <ellipse cx="140" cy="111" rx="7" ry="9" fill="#a06a38"/>
</svg>
